<?xml version="1.0" encoding="UTF-8" standalone="no"?>
<svg
   xml:space="preserve"
   style="enable-background:new 0 0 296.332 296.332;"
   viewBox="0 0 296.332 296.332"
   y="0px"
   x="0px"
   id="Capa_1"
   version="1.1"
   inkscape:version="1.2.2 (732a01da63, 2022-12-09)"
   sodipodi:docname="graph_2.svg"
   xmlns:inkscape="http://www.inkscape.org/namespaces/inkscape"
   xmlns:sodipodi="http://sodipodi.sourceforge.net/DTD/sodipodi-0.dtd"
   xmlns="http://www.w3.org/2000/svg"
   xmlns:svg="http://www.w3.org/2000/svg"
   xmlns:rdf="http://www.w3.org/1999/02/22-rdf-syntax-ns#"
   xmlns:cc="http://creativecommons.org/ns#"
   xmlns:dc="http://purl.org/dc/elements/1.1/"><sodipodi:namedview
     pagecolor="#ffffff"
     bordercolor="#666666"
     borderopacity="1"
     objecttolerance="10"
     gridtolerance="10"
     guidetolerance="10"
     inkscape:pageopacity="0"
     inkscape:pageshadow="2"
     inkscape:window-width="1920"
     inkscape:window-height="1137"
     id="namedview28"
     showgrid="false"
     inkscape:zoom="0.79640403"
     inkscape:cx="-147.53818"
     inkscape:cy="318.93359"
     inkscape:window-x="-8"
     inkscape:window-y="-8"
     inkscape:window-maximized="1"
     inkscape:current-layer="g1430"
     inkscape:showpageshadow="2"
     inkscape:pagecheckerboard="0"
     inkscape:deskcolor="#d1d1d1" /><metadata
     id="metadata22"><rdf:RDF><cc:Work
         rdf:about=""><dc:format>image/svg+xml</dc:format><dc:type
           rdf:resource="http://purl.org/dc/dcmitype/StillImage" /></cc:Work></rdf:RDF></metadata><defs
     id="defs43"><linearGradient
       id="linearGradient4630"
       inkscape:swatch="solid"><stop
         style="stop-color:#000000;stop-opacity:1;"
         offset="0"
         id="stop4632" /></linearGradient></defs><g
     id="g10" /><g
     id="g12" /><g
     id="g14" /><g
     id="g16" /><g
     id="g18" /><g
     id="g20" /><g
     id="g22" /><g
     id="g24" /><g
     id="g26" /><g
     id="g28" /><g
     id="g30" /><g
     id="g32" /><g
     id="g34" /><g
     id="g36" /><g
     id="g38" /><g
     id="g3"
     transform="matrix(0.62666118,0,0,0.69985415,-3.5169511,-10.088469)"><g
       id="XMLID_928_"><g
         id="g3-6"
         transform="matrix(0.75667458,0.42920589,-0.67866169,0.67145286,566.83501,-8.3316029)"><g
           id="g4166"
           transform="matrix(21.898223,-13.997775,18.404104,20.519676,-365.77395,367.68844)"><g
             id="g4181"
             transform="matrix(0.05847344,0,0,0.06591593,-9.5650331,4.1590412)"><g
               id="g10-6" /><g
               id="g12-3" /><g
               id="g14-4" /><g
               id="g16-3" /><g
               id="g18-3" /><g
               id="g20-6" /><g
               id="g22-0" /><g
               id="g24-1" /><g
               id="g26-6" /><g
               id="g28-5" /><g
               id="g30-8" /><g
               id="g32-9" /><g
               id="g34-2" /><g
               id="g36-9" /><g
               id="g38-7" /><path
               inkscape:connector-curvature="0"
               id="path4555"
               d=""
               style="fill:#ffffff;fill-opacity:1;stroke:none;stroke-width:4;stroke-miterlimit:0;stroke-dasharray:none;stroke-dashoffset:0;stroke-opacity:1" /><path
               inkscape:connector-curvature="0"
               id="path4557"
               d=""
               style="fill:#ffffff;fill-opacity:1;stroke:none;stroke-width:4;stroke-miterlimit:0;stroke-dasharray:none;stroke-dashoffset:0;stroke-opacity:1" /><path
               inkscape:connector-curvature="0"
               id="path4559"
               d=""
               style="fill:#ffffff;fill-opacity:1;stroke:none;stroke-width:4;stroke-miterlimit:0;stroke-dasharray:none;stroke-dashoffset:0;stroke-opacity:1" /><path
               inkscape:connector-curvature="0"
               id="path4563"
               d=""
               style="fill:#ffffff;fill-opacity:1;stroke:none;stroke-width:4;stroke-miterlimit:0;stroke-dasharray:none;stroke-dashoffset:0;stroke-opacity:1" /><g
               id="g1430"
               transform="translate(-51.11975,29.743793)"><path
                 d="m 238.51106,100.87318 v -3.500004 l 113.70945,-10e-7 113.70941,-10e-7 v 3.499996 l 0,3.5 -113.70941,1e-5 -113.70945,0 z m 16.06479,-11.434263 c -0.57039,-1.063841 -1.03711,-5.97225 -1.03711,-10.907581 v -8.973328 l 16.02953,-16.03084 16.02952,-16.03084 0,25.004168 c 0,15.323662 -0.40152,25.753021 -1.03711,26.938421 -0.94914,1.770228 -2.22051,1.934259 -14.99241,1.934259 -12.7719,0 -14.04327,-0.164031 -14.99242,-1.934259 z m 41.67555,0.42284 c -0.3196,-0.831281 -0.63166,-15.11878 -0.69349,-31.749999 l -0.11253,-30.23858 15.36351,-15.43177 15.36355,-15.4317699 0.26072,45.8170399 c 0.18778,32.996708 -0.0566,46.198917 -0.8741,47.181766 -1.74325,2.096682 -28.49672,1.962773 -29.30769,-0.146687 z m 41.12558,-0.285469 c -1.45218,-1.601669 -1.62095,-6.327831 -1.55333,-43.499998 0.0416,-22.936702 0.31732,-41.7031019 0.61262,-41.7031019 0.29508,0 3.86364,3.375 7.92977,7.4999999 4.06611,4.125 7.79732,7.5 8.29159,7.5 0.49426,0 1.08716,0.5625 1.31756,1.25 0.2833,0.84545 2.74213,1.24838 7.59734,1.24498 l 7.17841,-0.005 0,33.10003 c 0,30.796781 -0.12725,33.215199 -1.83211,34.755021 -1.5073,1.361559 -4.14422,1.654988 -14.87242,1.654988 -11.27664,0 -13.26063,-0.243031 -14.66943,-1.7969 z m 41.59278,0.5969 c -0.8933,-0.891669 -1.20221,-11.067131 -1.20221,-39.602108 l 0,-38.402102 15.40875,-15.3508399 c 8.47484,-8.4429601 15.68813,-15.0720201 16.02952,-14.7312301 1.11298,1.11091 0.7091,105.253048 -0.41634,107.35202 -0.94819,1.768528 -2.21868,1.934259 -14.82731,1.93426 -9.38989,0 -14.17379,-0.38291 -14.99241,-1.2 z m 42.12758,0.537718 c -0.98231,-0.39565 -1.25229,-13.443387 -1.2523,-60.521048 l 0,-60.01668 8.4155,-8.4 c 4.62854,-4.62 8.63714,-8.4 8.908,-8.4 0.27087,0 0.78594,1.16698 1.14457,2.59329 0.86691,3.44771 6.39559,8.94457 9.83405,9.77746 l 2.75508,0.66735 10e-6,61.28095 c 0,46.329628 -0.29344,61.573728 -1.20222,62.480947 -1.19616,1.193981 -25.82379,1.656968 -28.60269,0.537719 z M 239.29546,62.634971 c -3.03887,-1.88114 -4.44747,-6.198712 -2.92097,-8.953131 0.55135,-0.994759 20.83177,-21.559782 45.06763,-45.7000519 41.8486,-41.6835301 44.21521,-43.8614501 47.04753,-43.2960301 2.10474,0.42017 7.26062,4.87582 17.52112,15.1414 7.99631,8.00032 14.84157,14.5460301 15.21159,14.5460301 0.82781,0 73.65036,-72.5832901 73.65036,-73.4083501 0,-0.3254 -4.66384,-0.59165 -10.3641,-0.59165 -8.76821,0 -10.61943,-0.28159 -12.02214,-1.82874 -2.406,-2.65371 -2.18322,-8.82034 0.36789,-10.18315 2.72024,-1.45315 41.31472,-1.45406 44.03474,-0.001 2.93798,1.56948 3.18634,3.73031 2.84187,24.72756 -0.28068,17.10109 -0.51108,19.29888 -2.22156,21.18307 -2.68671,2.95953 -6.97677,2.72005 -9.53999,-0.53256 -1.76492,-2.23964 -2.07641,-4.03977 -2.07641,-12.00004 0,-5.15083 -0.34025,-9.36514 -0.75614,-9.36514 -0.41588,0 -18.53147,17.74685 -40.25687,39.43745 -21.7254,21.6906001 -40.55466,39.70149 -41.84284,40.0242 -1.28815,0.32272 -3.34723,0.0513 -4.57571,-0.60312 -1.22845,-0.65444 -8.64662,-7.6007899 -16.48476,-15.4363399 l -14.25116,-14.2464501 -39.58972,39.58671 c -35.03223,35.029561 -43.74271,43.279283 -45.61738,43.204352 -0.27544,-0.01094 -1.72582,-0.778269 -3.22298,-1.705019 z"
                 style="fill:#000000;stroke-width:1.02315"
                 id="path1593" /></g></g></g></g></g></g></svg>
